<?xml version="1.0" encoding="UTF-8" standalone="no"?>
<!DOCTYPE svg PUBLIC "-//W3C//DTD SVG 1.1//EN"
"http://www.w3.org/Graphics/SVG/1.1/DTD/svg11.dtd">
<svg viewBox="0 0 909 1286" version="1.1" xmlns="http://www.w3.org/2000/svg" xmlns:xlink="http://www.w3.org/1999/xlink">
<defs>
<clipPath id="c0"><path d="M340.4 229.9V48.5H910.1V229.9Z"/></clipPath>
<clipPath id="c1"><path d="M-.2 1236.5V-.2h359V1236.5Z"/></clipPath>
<clipPath id="c2"><path d="M-.2 1287.1V1036.7l.2 -.2L672.6 901.9l77.2 385.2H-.2Z"/></clipPath>
<clipPath id="c3"><path d="M182.7 316.8c-4.7 0 -9.4 -.2 -14 -.7C164 315.6 159.4 315 154.8 314c-4.6 -.9 -9.2 -2 -13.7 -3.4c-4.5 -1.3 -8.9 -2.9 -13.2 -4.7c-4.4 -1.8 -8.6 -3.8 -12.7 -6c-4.2 -2.2 -8.2 -4.6 -12.1 -7.3C99.2 290 95.4 287.2 91.8 284.3c-3.6 -3 -7.1 -6.2 -10.4 -9.5C78 271.5 74.9 268 71.9 264.4c-3 -3.6 -5.8 -7.4 -8.4 -11.3c-2.6 -3.9 -5 -7.9 -7.2 -12.1c-2.2 -4.1 -4.2 -8.4 -6 -12.7C48.5 224 46.9 219.6 45.5 215.1C44.2 210.6 43 206 42.1 201.4c-.9 -4.6 -1.6 -9.2 -2 -13.9c-.5 -4.7 -.7 -9.4 -.7 -14.1c0 -4.7 .2 -9.3 .7 -14c.4 -4.7 1.1 -9.3 2 -13.9c.9 -4.6 2.1 -9.2 3.4 -13.7c1.4 -4.5 3 -8.9 4.8 -13.2c1.8 -4.4 3.8 -8.6 6 -12.7c2.2 -4.2 4.6 -8.2 7.2 -12.1c2.6 -3.9 5.4 -7.7 8.4 -11.3c3 -3.6 6.1 -7.1 9.5 -10.4c3.3 -3.4 6.8 -6.5 10.4 -9.5c3.6 -3 7.4 -5.7 11.3 -8.4c3.9 -2.6 7.9 -5 12.1 -7.2c4.1 -2.2 8.3 -4.2 12.7 -6c4.3 -1.8 8.7 -3.4 13.2 -4.7c4.5 -1.4 9.1 -2.5 13.7 -3.5c4.6 -.9 9.2 -1.6 13.9 -2c4.7 -.5 9.3 -.7 14 -.7h.1c4.7 0 9.4 .2 14 .7c4.7 .4 9.3 1.1 13.9 2c4.6 1 9.2 2.1 13.7 3.5c4.5 1.3 8.9 2.9 13.2 4.7c4.4 1.8 8.6 3.8 12.7 6c4.2 2.2 8.2 4.6 12.1 7.2c3.9 2.7 7.7 5.4 11.3 8.4c3.6 3 7.1 6.1 10.4 9.5c3.4 3.3 6.5 6.8 9.5 10.4c3 3.6 5.8 7.4 8.4 11.3c2.6 3.9 5 7.9 7.2 12.1c2.2 4.1 4.2 8.3 6 12.7c1.8 4.3 3.4 8.7 4.8 13.2c1.3 4.5 2.5 9.1 3.4 13.7c.9 4.6 1.6 9.2 2.1 13.9c.4 4.7 .6 9.3 .6 14c0 4.7 -.2 9.4 -.6 14.1c-.5 4.7 -1.2 9.3 -2.1 13.9c-.9 4.6 -2.1 9.2 -3.4 13.7c-1.4 4.5 -3 8.9 -4.8 13.2c-1.8 4.3 -3.8 8.6 -6 12.7c-2.2 4.2 -4.6 8.2 -7.2 12.1c-2.6 3.9 -5.4 7.7 -8.4 11.3c-3 3.6 -6.1 7.1 -9.5 10.4c-3.3 3.3 -6.8 6.5 -10.4 9.5c-3.6 2.9 -7.4 5.7 -11.3 8.3c-3.9 2.7 -7.9 5.1 -12.1 7.3c-4.1 2.2 -8.3 4.2 -12.7 6c-4.3 1.8 -8.7 3.4 -13.2 4.7c-4.5 1.4 -9.1 2.5 -13.7 3.4c-4.6 1 -9.2 1.6 -13.9 2.1c-4.6 .5 -9.3 .7 -14 .7q-.1 0 -.1 0Z"/></clipPath>
<clipPath id="c4"><path d="M182.8 314.1c77.5 0 140.6 -63.1 140.6 -140.7C323.4 95.9 260.3 32.8 182.8 32.8C105.2 32.8 42.1 95.9 42.1 173.4c0 77.6 63.1 140.7 140.7 140.7Zm0 5.3c-80.6 0 -146 -65.5 -146 -146c0 -80.5 65.4 -146 146 -146c80.5 0 146 65.5 146 146c0 80.5 -65.5 146 -146 146Z"/></clipPath>
<clipPath id="c5"><path d="M23.9 743.1V717.3H49.7v25.8Z"/></clipPath>
<clipPath id="c6"><path d="M15.6 865.2V819.9h43v45.3Z"/></clipPath>
<style type="text/css"><![CDATA[
.g0{
fill: #FFF;
}
.g1{
fill: none;
stroke: #0B0B19;
stroke-width: 2.291;
}
.g2{
fill: #0B0B19;
}
.g3{
fill: none;
stroke: #0B0B19;
stroke-width: 2.291;
stroke-linecap: round;
stroke-linejoin: round;
}
.g4{
fill: #31C2E2;
}
.g5{
fill: none;
stroke: #FFF;
stroke-width: 5.729;
}
]]></style>
</defs>
<path d="M0 1286.8H909.8V0H0V1286.8Z" class="g0"/>
<path d="M0 1286.8H909.8V0H0V1286.8Z" class="g0"/>
<image clip-path="url(#c0)" preserveAspectRatio="none" x="341" y="49" width="569" height="181" xlink:href="img/1.jpg"/>
<image clip-path="url(#c1)" preserveAspectRatio="none" x="0" y="0" width="359" height="1236" xlink:href="img/2.jpg"/>
<path clip-path="url(#c2)" d="M566.3 1492.9c118.4 -3.8 209.4 -75 160.6 -177.7c-48.8 -102.7 -299.5 -52.6 -409 -103.5c-109.5 -50.8 -345 -169.2 -390.7 32c-45.8 201.2 41.2 370.7 207.1 339.9c165.9 -30.7 432 -90.7 432 -90.7Z" class="g0"/>
<path d="M384.9 907v132.4" class="g1"/>
<path d="M384.9 899.6c1.9 0 3.4 1.5 3.4 3.4c0 1.9 -1.5 3.4 -3.4 3.4c-1.9 0 -3.5 -1.5 -3.5 -3.4c0 -1.9 1.6 -3.4 3.5 -3.4Z" class="g2"/>
<path d="M384.9 899.6c1.9 0 3.4 1.5 3.4 3.4c0 1.9 -1.5 3.4 -3.4 3.4c-1.9 0 -3.5 -1.5 -3.5 -3.4c0 -1.9 1.6 -3.4 3.5 -3.4" class="g3"/>
<path d="M383.7 285.4v63.2" class="g1"/>
<path d="M383.7 277.9c1.9 0 3.4 1.6 3.4 3.5c0 1.9 -1.5 3.4 -3.4 3.4c-1.9 0 -3.4 -1.5 -3.4 -3.4c0 -1.9 1.5 -3.5 3.4 -3.5Z" class="g2"/>
<path d="M383.7 277.9c1.9 0 3.4 1.6 3.4 3.5c0 1.9 -1.5 3.4 -3.4 3.4c-1.9 0 -3.4 -1.5 -3.4 -3.4c0 -1.9 1.5 -3.5 3.4 -3.5" class="g3"/>
<path d="M384.9 596v34.6" class="g1"/>
<path d="M384.9 588.5c1.9 0 3.4 1.6 3.4 3.5c0 1.9 -1.5 3.4 -3.4 3.4c-1.9 0 -3.5 -1.5 -3.5 -3.4c0 -1.9 1.6 -3.5 3.5 -3.5Z" class="g2"/>
<path d="M384.9 588.5c1.9 0 3.4 1.6 3.4 3.5c0 1.9 -1.5 3.4 -3.4 3.4c-1.9 0 -3.5 -1.5 -3.5 -3.4c0 -1.9 1.6 -3.5 3.5 -3.5" class="g3"/>
<g clip-path="url(#c3)">
<path d="M33.4 322.2h299V24.4H33.4V322.2Z" class="g4"/>
<image preserveAspectRatio="none" x="39" y="12" width="287" height="397" xlink:href="img/3.jpg"/>
</g>
<path clip-path="url(#c4)" d="M33.4 322.2h299V24.4H33.4V322.2Z" class="g0"/>
<path d="M533.4 155.8H720.9" class="g5"/>
<path clip-path="url(#c5)" d="M44 731.6c-.3 0 -.5 -.2 -.5 -.4c-.1 -1.8 -.8 -3.5 -2.1 -4.8c-1.2 -1.3 -2.8 -2.1 -4.6 -2.3c-.3 -.1 -.4 -.3 -.4 -.5c0 -.3 .2 -.4 .5 -.4c2 .2 3.8 1.1 5.2 2.6c1.4 1.4 2.2 3.3 2.3 5.3c0 .3 -.2 .5 -.4 .5Zm-7.3 -5.2c0 -.3 .2 -.4 .5 -.4c1.1 .1 2.2 .7 3.1 1.5c.8 .9 1.3 2 1.3 3.2c0 .2 -.1 .5 -.4 .5c-.2 0 -.4 -.2 -.5 -.4c0 -1 -.4 -2 -1.1 -2.7c-.7 -.7 -1.6 -1.1 -2.5 -1.2c-.3 -.1 -.5 -.3 -.4 -.5Zm6.6 10.8c0 .1 -.6 .5 -.6 .6c-.9 .9 -2.4 1 -3.6 .8c-.5 -.2 -.9 -.3 -1.3 -.5c-1.9 -.8 -3.8 -2.3 -5.2 -3.8c-1.5 -1.6 -2.8 -3.5 -3.6 -5.4c-.1 -.4 -.3 -.9 -.3 -1.3c-.3 -1.3 0 -2.8 .9 -3.6c.1 -.1 .6 -.5 .6 -.6c.9 -.8 1.7 .3 2.5 1.1c.6 .7 1.7 1.8 1.6 2.9c-.1 .5 -.8 1 -1 1.5c-.3 .7 -.1 1.5 .3 2.1c.3 .4 .7 .8 1.1 1.3c.4 .4 .8 .8 1.2 1.1c.6 .5 1.3 .7 2.1 .4c.5 -.2 1 -.8 1.6 -.8c1 -.1 2.1 1 2.8 1.7c.7 .8 1.8 1.6 .9 2.5ZM37.1 717.6c-7.1 0 -12.9 5.7 -12.9 12.9c0 7.1 5.8 12.8 12.9 12.8c7.1 0 12.9 -5.7 12.9 -12.8c0 -7.2 -5.8 -12.9 -12.9 -12.9Z" class="g0"/>
<path fill-rule="evenodd" d="M37.1 799.9c11.3 0 20.5 -9.1 20.5 -20.4C57.6 768.1 48.4 759 37.1 759c-11.3 0 -20.5 9.1 -20.5 20.5c0 11.3 9.2 20.4 20.5 20.4ZM27.8 770.7l9.3 7.5l9.3 -7.5l.3 -.2H27.5l.3 .2Zm19.8 1.6L48 772v15.4c0 .5 -.4 1 -1 1H27.2c-.6 0 -1 -.5 -1 -1V772l.3 .3l10 7.9c.3 .3 .8 .3 1.2 0l9.9 -7.9Z" class="g0"/>
<path clip-path="url(#c6)" d="M37.1 820.2c-7 0 -12.7 5.7 -12.7 12.8c0 9 12.7 23.3 12.7 23.3c0 0 12.7 -14.3 12.7 -23.3c0 -7.1 -5.7 -12.8 -12.7 -12.8Zm0 8.2c2.5 0 4.5 2 4.5 4.6c0 2.5 -2 4.5 -4.5 4.5c-2.5 0 -4.6 -2 -4.6 -4.5c0 -2.6 2.1 -4.6 4.6 -4.6ZM21.8 849.9l-5.9 14.9H58.3l-6 -14.9h-5c-1 1.6 -2.1 3 -3 4.3h5.2l2.5 6.3H22.1l2.6 -6.3h5.2c-1 -1.3 -2 -2.7 -3 -4.3H21.8Z" class="g0"/>
<path d="M384.9 1100.2c0 .4 -.1 .7 -.2 1.1c-.1 .3 -.4 .7 -.6 .9c-.3 .3 -.6 .5 -1 .6c-.3 .2 -.7 .3 -1 .3c-.4 0 -.8 -.1 -1.1 -.3c-.4 -.1 -.7 -.3 -1 -.6c-.2 -.2 -.4 -.6 -.6 -.9c-.1 -.4 -.2 -.7 -.2 -1.1c0 -.4 .1 -.8 .2 -1.1c.2 -.4 .4 -.7 .6 -.9c.3 -.3 .6 -.5 1 -.7c.3 -.1 .7 -.2 1.1 -.2c.3 0 .7 .1 1 .2c.4 .2 .7 .4 1 .7c.2 .2 .5 .5 .6 .9c.1 .3 .2 .7 .2 1.1Z" class="g2"/>
<path d="M384.9 1125.4c0 .4 -.1 .7 -.2 1.1c-.1 .3 -.4 .7 -.6 .9c-.3 .3 -.6 .5 -1 .6c-.3 .2 -.7 .3 -1 .3c-.4 0 -.8 -.1 -1.1 -.3c-.4 -.1 -.7 -.3 -1 -.6c-.2 -.2 -.4 -.6 -.6 -.9c-.1 -.4 -.2 -.7 -.2 -1.1c0 -.4 .1 -.7 .2 -1.1c.2 -.3 .4 -.7 .6 -.9c.3 -.3 .6 -.5 1 -.6c.3 -.2 .7 -.3 1.1 -.3c.3 0 .7 .1 1 .3c.4 .1 .7 .3 1 .6c.2 .2 .5 .6 .6 .9c.1 .4 .2 .7 .2 1.1Z" class="g2"/>
<path d="M384.9 1150.6c0 .4 -.1 .8 -.2 1.1c-.1 .4 -.4 .7 -.6 .9c-.3 .3 -.6 .5 -1 .7c-.3 .1 -.7 .2 -1 .2c-.4 0 -.8 -.1 -1.1 -.2c-.4 -.2 -.7 -.4 -1 -.7c-.2 -.2 -.4 -.5 -.6 -.9c-.1 -.3 -.2 -.7 -.2 -1.1c0 -.4 .1 -.7 .2 -1.1c.2 -.3 .4 -.6 .6 -.9c.3 -.3 .6 -.5 1 -.6c.3 -.2 .7 -.3 1.1 -.3c.3 0 .7 .1 1 .3c.4 .1 .7 .3 1 .6c.2 .3 .5 .6 .6 .9c.1 .4 .2 .7 .2 1.1Z" class="g2"/>
<path d="M384.9 1175.8c0 .4 -.1 .8 -.2 1.1c-.1 .4 -.4 .7 -.6 .9c-.3 .3 -.6 .5 -1 .7c-.3 .1 -.7 .2 -1 .2c-.4 0 -.8 -.1 -1.1 -.2c-.4 -.2 -.7 -.4 -1 -.7c-.2 -.2 -.4 -.5 -.6 -.9c-.1 -.3 -.2 -.7 -.2 -1.1c0 -.4 .1 -.7 .2 -1.1c.2 -.3 .4 -.6 .6 -.9c.3 -.3 .6 -.5 1 -.6c.3 -.2 .7 -.2 1.1 -.2c.3 0 .7 0 1 .2c.4 .1 .7 .3 1 .6c.2 .3 .5 .6 .6 .9c.1 .4 .2 .7 .2 1.1Z" class="g2"/>
<path d="M384.9 1201c0 .4 -.1 .8 -.2 1.1c-.1 .4 -.4 .7 -.6 1c-.3 .2 -.6 .4 -1 .6c-.3 .1 -.7 .2 -1 .2c-.4 0 -.8 -.1 -1.1 -.2c-.4 -.2 -.7 -.4 -1 -.6c-.2 -.3 -.4 -.6 -.6 -1c-.1 -.3 -.2 -.7 -.2 -1.1c0 -.4 .1 -.7 .2 -1.1c.2 -.3 .4 -.6 .6 -.9c.3 -.3 .6 -.5 1 -.6c.3 -.2 .7 -.2 1.1 -.2c.3 0 .7 0 1 .2c.4 .1 .7 .3 1 .6c.2 .3 .5 .6 .6 .9c.1 .4 .2 .7 .2 1.1Z" class="g2"/>
<path d="M384.9 403.7c0 .4 -.1 .7 -.2 1.1c-.1 .3 -.4 .6 -.6 .9c-.3 .3 -.6 .5 -1 .6c-.3 .2 -.7 .2 -1 .2c-.4 0 -.8 0 -1.1 -.2c-.4 -.1 -.7 -.3 -1 -.6c-.2 -.3 -.4 -.6 -.6 -.9c-.1 -.4 -.2 -.7 -.2 -1.1c0 -.4 .1 -.8 .2 -1.1c.2 -.4 .4 -.7 .6 -.9c.3 -.3 .6 -.5 1 -.7c.3 -.1 .7 -.2 1.1 -.2c.3 0 .7 .1 1 .2c.4 .2 .7 .4 1 .7c.2 .2 .5 .5 .6 .9c.1 .3 .2 .7 .2 1.1Z" class="g2"/>
<path d="M384.9 454.1c0 .4 -.1 .7 -.2 1.1c-.1 .3 -.4 .7 -.6 .9c-.3 .3 -.6 .5 -1 .6c-.3 .2 -.7 .3 -1 .3c-.4 0 -.8 -.1 -1.1 -.3c-.4 -.1 -.7 -.3 -1 -.6c-.2 -.2 -.4 -.6 -.6 -.9c-.1 -.4 -.2 -.7 -.2 -1.1c0 -.4 .1 -.8 .2 -1.1c.2 -.4 .4 -.7 .6 -.9c.3 -.3 .6 -.5 1 -.7c.3 -.1 .7 -.2 1.1 -.2c.3 0 .7 .1 1 .2c.4 .2 .7 .4 1 .7c.2 .2 .5 .5 .6 .9c.1 .3 .2 .7 .2 1.1Z" class="g2"/>
<path d="M384.9 504.5c0 .4 -.1 .8 -.2 1.1c-.1 .4 -.4 .7 -.6 .9c-.3 .3 -.6 .5 -1 .7c-.3 .1 -.7 .2 -1 .2c-.4 0 -.8 -.1 -1.1 -.2c-.4 -.2 -.7 -.4 -1 -.7c-.2 -.2 -.4 -.5 -.6 -.9c-.1 -.3 -.2 -.7 -.2 -1.1c0 -.4 .1 -.7 .2 -1.1c.2 -.3 .4 -.6 .6 -.9c.3 -.3 .6 -.5 1 -.6c.3 -.2 .7 -.3 1.1 -.3c.3 0 .7 .1 1 .3c.4 .1 .7 .3 1 .6c.2 .3 .5 .6 .6 .9c.1 .4 .2 .7 .2 1.1Z" class="g2"/>
<path d="M384.9 529.7c0 .4 -.1 .8 -.2 1.1c-.1 .4 -.4 .7 -.6 .9c-.3 .3 -.6 .5 -1 .7c-.3 .1 -.7 .2 -1 .2c-.4 0 -.8 -.1 -1.1 -.2c-.4 -.2 -.7 -.4 -1 -.7c-.2 -.2 -.4 -.5 -.6 -.9c-.1 -.3 -.2 -.7 -.2 -1.1c0 -.4 .1 -.7 .2 -1.1c.2 -.3 .4 -.6 .6 -.9c.3 -.3 .6 -.5 1 -.6c.3 -.2 .7 -.2 1.1 -.2c.3 0 .7 0 1 .2c.4 .1 .7 .3 1 .6c.2 .3 .5 .6 .6 .9c.1 .4 .2 .7 .2 1.1Z" class="g2"/>
<path d="M38.3 959.4c0 .4 -.1 .7 -.2 1.1c-.2 .3 -.4 .6 -.6 .9c-.3 .3 -.6 .5 -1 .6c-.3 .2 -.7 .2 -1.1 .2c-.3 0 -.7 0 -1 -.2c-.4 -.1 -.7 -.3 -1 -.6c-.2 -.3 -.5 -.6 -.6 -.9c-.1 -.4 -.2 -.7 -.2 -1.1c0 -.4 .1 -.8 .2 -1.1c.1 -.4 .4 -.7 .6 -1c.3 -.2 .6 -.4 1 -.6c.3 -.1 .7 -.2 1 -.2c.4 0 .8 .1 1.1 .2c.4 .2 .7 .4 1 .6c.2 .3 .4 .6 .6 1c.1 .3 .2 .7 .2 1.1Z" class="g0"/>
<path d="M38.3 984.6c0 .4 -.1 .7 -.2 1.1c-.2 .3 -.4 .6 -.6 .9c-.3 .3 -.6 .5 -1 .6c-.3 .2 -.7 .2 -1.1 .2c-.3 0 -.7 0 -1 -.2c-.4 -.1 -.7 -.3 -1 -.6c-.2 -.3 -.5 -.6 -.6 -.9c-.1 -.4 -.2 -.7 -.2 -1.1c0 -.4 .1 -.8 .2 -1.1c.1 -.4 .4 -.7 .6 -.9c.3 -.3 .6 -.5 1 -.7c.3 -.1 .7 -.2 1 -.2c.4 0 .8 .1 1.1 .2c.4 .2 .7 .4 1 .7c.2 .2 .4 .5 .6 .9c.1 .3 .2 .7 .2 1.1Z" class="g0"/>
<path d="M38.3 1009.8c0 .4 -.1 .7 -.2 1.1c-.2 .3 -.4 .6 -.6 .9c-.3 .3 -.6 .5 -1 .6c-.3 .2 -.7 .3 -1.1 .3c-.3 0 -.7 -.1 -1 -.3c-.4 -.1 -.7 -.3 -1 -.6c-.2 -.3 -.5 -.6 -.6 -.9c-.1 -.4 -.2 -.7 -.2 -1.1c0 -.4 .1 -.8 .2 -1.1c.1 -.4 .4 -.7 .6 -.9c.3 -.3 .6 -.5 1 -.7c.3 -.1 .7 -.2 1 -.2c.4 0 .8 .1 1.1 .2c.4 .2 .7 .4 1 .7c.2 .2 .4 .5 .6 .9c.1 .3 .2 .7 .2 1.1Z" class="g0"/>
<path d="M384.9 651.7v80.2" class="g1"/>
<path d="M384.9 644.3c1.9 0 3.4 1.5 3.4 3.4c0 1.9 -1.5 3.4 -3.4 3.4c-1.9 0 -3.5 -1.5 -3.5 -3.4c0 -1.9 1.6 -3.4 3.5 -3.4Z" class="g2"/>
<path d="M384.9 644.3c1.9 0 3.4 1.5 3.4 3.4c0 1.9 -1.5 3.4 -3.4 3.4c-1.9 0 -3.5 -1.5 -3.5 -3.4c0 -1.9 1.6 -3.4 3.5 -3.4" class="g3"/>
<path d="M384.9 752V887.8" class="g1"/>
<path d="M384.9 744.5c1.9 0 3.4 1.5 3.4 3.4c0 1.9 -1.5 3.5 -3.4 3.5c-1.9 0 -3.5 -1.6 -3.5 -3.5c0 -1.9 1.6 -3.4 3.5 -3.4Z" class="g2"/>
<path d="M384.9 744.5c1.9 0 3.4 1.5 3.4 3.4c0 1.9 -1.5 3.5 -3.4 3.5c-1.9 0 -3.5 -1.6 -3.5 -3.5c0 -1.9 1.6 -3.4 3.5 -3.4" class="g3"/>
</svg>